<svg width="80" height="80" viewBox="0 0 80 80" fill="none" xmlns="http://www.w3.org/2000/svg">
<g clip-path="url(#clip0_1_16)">
<path d="M36.4667 69.0567C37.4042 69.993 38.675 70.5189 40 70.5189C41.325 70.5189 42.5958 69.993 43.5333 69.0567L62.3967 50.2033C63.3346 49.2654 63.8616 47.9932 63.8616 46.6667C63.8616 45.3402 63.3346 44.068 62.3967 43.13C61.4587 42.192 60.1865 41.6651 58.86 41.6651C57.5335 41.6651 56.2613 42.192 55.3233 43.13L45 53.45L45 15C45 13.6739 44.4732 12.4022 43.5355 11.4645C42.5979 10.5268 41.3261 10 40 10C38.6739 10 37.4021 10.5268 36.4645 11.4645C35.5268 12.4022 35 13.6739 35 15L35 53.45L24.68 43.13C24.2156 42.6656 23.6642 42.2971 23.0574 42.0458C22.4505 41.7944 21.8002 41.6651 21.1433 41.6651C20.4865 41.6651 19.8361 41.7944 19.2293 42.0458C18.6225 42.2971 18.0711 42.6656 17.6067 43.13C17.1422 43.5944 16.7738 44.1458 16.5225 44.7526C16.2711 45.3595 16.1417 46.0098 16.1417 46.6667C16.1417 47.3235 16.2711 47.9739 16.5225 48.5807C16.7738 49.1875 17.1422 49.7389 17.6067 50.2033L36.4667 69.0567Z" fill="#1C0040"/>
</g>
<defs>
<clipPath id="clip0_1_16">
<rect width="80" height="80" fill="white" transform="matrix(-1 0 0 -1 80 80)"/>
</clipPath>
</defs>
</svg>
